<mxfile host="app.diagrams.net" agent="Mozilla/5.0 (X11; Ubuntu; Linux x86_64; rv:128.0) Gecko/20100101 Firefox/128.0" version="24.7.6">
  <diagram id="R2lEEEUBdFMjLlhIrx00" name="Page-1">
    <mxGraphModel dx="1362" dy="795" grid="1" gridSize="10" guides="1" tooltips="1" connect="1" arrows="1" fold="1" page="1" pageScale="1" pageWidth="850" pageHeight="1100" math="0" shadow="0" extFonts="Permanent Marker^https://fonts.googleapis.com/css?family=Permanent+Marker">
      <root>
        <mxCell id="0" />
        <mxCell id="1" parent="0" />
        <mxCell id="k6-bwUN0slMIS6d7YAmL-3" style="edgeStyle=orthogonalEdgeStyle;rounded=0;orthogonalLoop=1;jettySize=auto;html=1;" parent="1" source="k6-bwUN0slMIS6d7YAmL-1" target="k6-bwUN0slMIS6d7YAmL-4" edge="1">
          <mxGeometry relative="1" as="geometry">
            <mxPoint x="450" y="250" as="targetPoint" />
          </mxGeometry>
        </mxCell>
        <mxCell id="k6-bwUN0slMIS6d7YAmL-11" style="edgeStyle=orthogonalEdgeStyle;rounded=0;orthogonalLoop=1;jettySize=auto;html=1;entryX=0;entryY=0.5;entryDx=0;entryDy=0;" parent="1" source="k6-bwUN0slMIS6d7YAmL-1" target="k6-bwUN0slMIS6d7YAmL-10" edge="1">
          <mxGeometry relative="1" as="geometry">
            <Array as="points">
              <mxPoint x="210" y="150" />
              <mxPoint x="610" y="150" />
              <mxPoint x="610" y="40" />
            </Array>
          </mxGeometry>
        </mxCell>
        <mxCell id="k6-bwUN0slMIS6d7YAmL-24" style="edgeStyle=orthogonalEdgeStyle;rounded=0;orthogonalLoop=1;jettySize=auto;html=1;entryX=0;entryY=0.5;entryDx=0;entryDy=0;" parent="1" source="k6-bwUN0slMIS6d7YAmL-1" target="k6-bwUN0slMIS6d7YAmL-5" edge="1">
          <mxGeometry relative="1" as="geometry">
            <Array as="points">
              <mxPoint x="200" y="100" />
              <mxPoint x="318" y="100" />
              <mxPoint x="318" y="40" />
            </Array>
          </mxGeometry>
        </mxCell>
        <mxCell id="k6-bwUN0slMIS6d7YAmL-1" value="&lt;div style=&quot;font-size: 15px;&quot;&gt;&lt;b&gt;chantier.Chantier&lt;/b&gt;&lt;br&gt;&lt;font style=&quot;font-size: 12px;&quot;&gt;prodevisfacture&lt;/font&gt;&lt;/div&gt;&lt;div&gt;client&lt;/div&gt;&lt;div&gt;consultation&lt;/div&gt;&lt;div&gt;&lt;br&gt;&lt;/div&gt;" style="rounded=0;whiteSpace=wrap;html=1;" parent="1" vertex="1">
          <mxGeometry x="130" y="160" width="140" height="120" as="geometry" />
        </mxCell>
        <mxCell id="k6-bwUN0slMIS6d7YAmL-13" style="edgeStyle=orthogonalEdgeStyle;rounded=0;orthogonalLoop=1;jettySize=auto;html=1;entryX=0;entryY=0.5;entryDx=0;entryDy=0;" parent="1" source="k6-bwUN0slMIS6d7YAmL-4" target="k6-bwUN0slMIS6d7YAmL-12" edge="1">
          <mxGeometry relative="1" as="geometry" />
        </mxCell>
        <mxCell id="k6-bwUN0slMIS6d7YAmL-23" style="edgeStyle=orthogonalEdgeStyle;rounded=0;orthogonalLoop=1;jettySize=auto;html=1;entryX=0;entryY=0.5;entryDx=0;entryDy=0;" parent="1" source="k6-bwUN0slMIS6d7YAmL-4" target="k6-bwUN0slMIS6d7YAmL-20" edge="1">
          <mxGeometry relative="1" as="geometry">
            <Array as="points">
              <mxPoint x="430" y="550" />
              <mxPoint x="650" y="550" />
            </Array>
          </mxGeometry>
        </mxCell>
        <mxCell id="k6-bwUN0slMIS6d7YAmL-4" value="&lt;div&gt;&lt;font style=&quot;font-size: 16px;&quot;&gt;&lt;b&gt;procrm.Deal&lt;/b&gt;&lt;/font&gt;&lt;/div&gt;&lt;div&gt;&lt;br&gt;&lt;/div&gt;&lt;div&gt;conversation&lt;/div&gt;&lt;div&gt;procompany&lt;/div&gt;&lt;div&gt;pipedrive&lt;/div&gt;&lt;div&gt;meeting&lt;/div&gt;&lt;div&gt;&lt;br&gt;&lt;/div&gt;" style="rounded=0;whiteSpace=wrap;html=1;" parent="1" vertex="1">
          <mxGeometry x="390" y="120" width="120" height="160" as="geometry" />
        </mxCell>
        <mxCell id="k6-bwUN0slMIS6d7YAmL-5" value="&lt;div&gt;Pipedrive&lt;/div&gt;" style="rounded=0;whiteSpace=wrap;html=1;" parent="1" vertex="1">
          <mxGeometry x="365" y="10" width="120" height="60" as="geometry" />
        </mxCell>
        <mxCell id="k6-bwUN0slMIS6d7YAmL-7" value="&lt;div&gt;Person&lt;/div&gt;" style="rounded=0;whiteSpace=wrap;html=1;" parent="1" vertex="1">
          <mxGeometry x="150" y="520" width="120" height="60" as="geometry" />
        </mxCell>
        <mxCell id="k6-bwUN0slMIS6d7YAmL-10" value="&lt;div&gt;Lemonway account&lt;/div&gt;" style="rounded=0;whiteSpace=wrap;html=1;" parent="1" vertex="1">
          <mxGeometry x="570" y="10" width="120" height="60" as="geometry" />
        </mxCell>
        <mxCell id="k6-bwUN0slMIS6d7YAmL-12" value="&lt;div&gt;&lt;font style=&quot;font-size: 16px;&quot;&gt;&lt;b&gt;conversation.Conversation&lt;/b&gt;&lt;/font&gt;&lt;/div&gt;&lt;div&gt;&lt;br&gt;&lt;/div&gt;" style="rounded=0;whiteSpace=wrap;html=1;" parent="1" vertex="1">
          <mxGeometry x="650" y="120" width="250" height="160" as="geometry" />
        </mxCell>
        <mxCell id="k6-bwUN0slMIS6d7YAmL-29" style="edgeStyle=orthogonalEdgeStyle;rounded=0;orthogonalLoop=1;jettySize=auto;html=1;exitX=1;exitY=0.5;exitDx=0;exitDy=0;" parent="1" source="k6-bwUN0slMIS6d7YAmL-15" target="k6-bwUN0slMIS6d7YAmL-27" edge="1">
          <mxGeometry relative="1" as="geometry">
            <Array as="points">
              <mxPoint x="990" y="345" />
              <mxPoint x="990" y="190" />
              <mxPoint x="970" y="190" />
              <mxPoint x="970" y="40" />
            </Array>
          </mxGeometry>
        </mxCell>
        <mxCell id="k6-bwUN0slMIS6d7YAmL-15" value="&lt;div&gt;&lt;b&gt;&lt;font style=&quot;font-size: 16px;&quot;&gt;procompany.ProCompany&lt;/font&gt;&lt;/b&gt;&lt;/div&gt;&lt;div style=&quot;&quot;&gt;&lt;font style=&quot;font-size: 12px;&quot;&gt;employees&lt;b&gt;&lt;font style=&quot;font-size: 12px;&quot;&gt;&lt;br&gt;&lt;/font&gt;&lt;/b&gt;&lt;/font&gt;&lt;/div&gt;" style="rounded=0;whiteSpace=wrap;html=1;" parent="1" vertex="1">
          <mxGeometry x="650" y="310" width="250" height="70" as="geometry" />
        </mxCell>
        <mxCell id="k6-bwUN0slMIS6d7YAmL-16" style="edgeStyle=orthogonalEdgeStyle;rounded=0;orthogonalLoop=1;jettySize=auto;html=1;exitX=0.5;exitY=1;exitDx=0;exitDy=0;entryX=-0.008;entryY=0.536;entryDx=0;entryDy=0;entryPerimeter=0;" parent="1" source="k6-bwUN0slMIS6d7YAmL-4" target="k6-bwUN0slMIS6d7YAmL-15" edge="1">
          <mxGeometry relative="1" as="geometry">
            <Array as="points">
              <mxPoint x="450" y="350" />
              <mxPoint x="648" y="350" />
            </Array>
          </mxGeometry>
        </mxCell>
        <mxCell id="k6-bwUN0slMIS6d7YAmL-17" style="edgeStyle=orthogonalEdgeStyle;rounded=0;orthogonalLoop=1;jettySize=auto;html=1;exitX=0.5;exitY=1;exitDx=0;exitDy=0;" parent="1" source="k6-bwUN0slMIS6d7YAmL-15" target="k6-bwUN0slMIS6d7YAmL-15" edge="1">
          <mxGeometry relative="1" as="geometry" />
        </mxCell>
        <mxCell id="k6-bwUN0slMIS6d7YAmL-30" style="edgeStyle=orthogonalEdgeStyle;rounded=0;orthogonalLoop=1;jettySize=auto;html=1;entryX=0.5;entryY=1;entryDx=0;entryDy=0;" parent="1" source="k6-bwUN0slMIS6d7YAmL-18" target="k6-bwUN0slMIS6d7YAmL-15" edge="1">
          <mxGeometry relative="1" as="geometry" />
        </mxCell>
        <mxCell id="k6-bwUN0slMIS6d7YAmL-18" value="&lt;div&gt;&lt;b&gt;&lt;font style=&quot;font-size: 16px;&quot;&gt;procompany.ProUser&lt;/font&gt;&lt;/b&gt;&lt;/div&gt;&lt;div&gt;&lt;font style=&quot;font-size: 12px;&quot;&gt;employees&lt;b&gt;&lt;font style=&quot;font-size: 12px;&quot;&gt;&lt;br&gt;&lt;/font&gt;&lt;/b&gt;&lt;/font&gt;&lt;/div&gt;" style="rounded=0;whiteSpace=wrap;html=1;" parent="1" vertex="1">
          <mxGeometry x="650" y="420" width="250" height="70" as="geometry" />
        </mxCell>
        <mxCell id="k6-bwUN0slMIS6d7YAmL-19" style="edgeStyle=orthogonalEdgeStyle;rounded=0;orthogonalLoop=1;jettySize=auto;html=1;entryX=0.004;entryY=0.629;entryDx=0;entryDy=0;entryPerimeter=0;" parent="1" source="k6-bwUN0slMIS6d7YAmL-4" target="k6-bwUN0slMIS6d7YAmL-18" edge="1">
          <mxGeometry relative="1" as="geometry">
            <Array as="points">
              <mxPoint x="440" y="450" />
              <mxPoint x="651" y="450" />
            </Array>
          </mxGeometry>
        </mxCell>
        <mxCell id="k6-bwUN0slMIS6d7YAmL-20" value="&lt;div&gt;&lt;font style=&quot;font-size: 16px;&quot;&gt;&lt;b&gt;procrm.ProClient&lt;/b&gt;&lt;/font&gt;&lt;/div&gt;&lt;div&gt;&lt;div&gt;conversation&lt;/div&gt;&lt;div&gt;procompany&lt;/div&gt;&lt;div&gt;pipedrive&lt;/div&gt;&lt;div&gt;meeting&lt;/div&gt;&lt;/div&gt;&lt;div&gt;&lt;br&gt;&lt;/div&gt;&lt;br&gt;&lt;div&gt;&lt;br&gt;&lt;/div&gt;" style="rounded=0;whiteSpace=wrap;html=1;" parent="1" vertex="1">
          <mxGeometry x="650" y="510" width="270" height="130" as="geometry" />
        </mxCell>
        <mxCell id="k6-bwUN0slMIS6d7YAmL-25" style="edgeStyle=orthogonalEdgeStyle;rounded=0;orthogonalLoop=1;jettySize=auto;html=1;entryX=0.658;entryY=1.033;entryDx=0;entryDy=0;entryPerimeter=0;" parent="1" source="k6-bwUN0slMIS6d7YAmL-4" target="k6-bwUN0slMIS6d7YAmL-5" edge="1">
          <mxGeometry relative="1" as="geometry" />
        </mxCell>
        <mxCell id="k6-bwUN0slMIS6d7YAmL-26" style="edgeStyle=orthogonalEdgeStyle;rounded=0;orthogonalLoop=1;jettySize=auto;html=1;entryX=0.683;entryY=0;entryDx=0;entryDy=0;entryPerimeter=0;" parent="1" source="k6-bwUN0slMIS6d7YAmL-15" target="k6-bwUN0slMIS6d7YAmL-7" edge="1">
          <mxGeometry relative="1" as="geometry" />
        </mxCell>
        <mxCell id="k6-bwUN0slMIS6d7YAmL-27" value="&lt;div&gt;Lemonway wallet&lt;/div&gt;" style="rounded=0;whiteSpace=wrap;html=1;" parent="1" vertex="1">
          <mxGeometry x="750" y="10" width="120" height="60" as="geometry" />
        </mxCell>
        <mxCell id="k6-bwUN0slMIS6d7YAmL-31" style="edgeStyle=orthogonalEdgeStyle;rounded=0;orthogonalLoop=1;jettySize=auto;html=1;entryX=0.417;entryY=0;entryDx=0;entryDy=0;entryPerimeter=0;" parent="1" source="k6-bwUN0slMIS6d7YAmL-1" target="k6-bwUN0slMIS6d7YAmL-7" edge="1">
          <mxGeometry relative="1" as="geometry" />
        </mxCell>
        <mxCell id="XZq5dFfTk_n5hl-OJJlX-2" style="edgeStyle=orthogonalEdgeStyle;rounded=0;orthogonalLoop=1;jettySize=auto;html=1;entryX=0.133;entryY=0.981;entryDx=0;entryDy=0;entryPerimeter=0;" edge="1" parent="1" source="XZq5dFfTk_n5hl-OJJlX-1" target="k6-bwUN0slMIS6d7YAmL-4">
          <mxGeometry relative="1" as="geometry">
            <mxPoint x="370" y="240" as="targetPoint" />
          </mxGeometry>
        </mxCell>
        <mxCell id="XZq5dFfTk_n5hl-OJJlX-3" value="&lt;div&gt;dealUuid&lt;/div&gt;&lt;div&gt;&lt;br&gt;&lt;/div&gt;" style="edgeLabel;html=1;align=center;verticalAlign=middle;resizable=0;points=[];" vertex="1" connectable="0" parent="XZq5dFfTk_n5hl-OJJlX-2">
          <mxGeometry x="0.0684" y="-2" relative="1" as="geometry">
            <mxPoint x="-8" as="offset" />
          </mxGeometry>
        </mxCell>
        <mxCell id="XZq5dFfTk_n5hl-OJJlX-1" value="&lt;div&gt;meeting&lt;/div&gt;&lt;div&gt;&lt;br&gt;&lt;/div&gt;" style="whiteSpace=wrap;html=1;aspect=fixed;" vertex="1" parent="1">
          <mxGeometry x="285" y="400" width="80" height="80" as="geometry" />
        </mxCell>
      </root>
    </mxGraphModel>
  </diagram>
</mxfile>
